<svg xmlns="http://www.w3.org/2000/svg" fill="none" overflow="visible" preserveAspectRatio="none" style="display:block" viewBox="0 0 18 18"><path fill="var(--fill-0, #4285f4)" fill-rule="evenodd" d="M17.64 9.205q-.002-.958-.164-1.841H9v3.481h4.844a4.14 4.14 0 0 1-1.796 2.716v2.258h2.908c1.702-1.566 2.684-3.874 2.684-6.614" clip-rule="evenodd"/><path fill="var(--fill-0, #34a853)" fill-rule="evenodd" d="M9 18c2.43 0 4.467-.806 5.956-2.18l-2.908-2.259c-.806.54-1.837.86-3.048.86-2.344 0-4.328-1.584-5.036-3.711H.957v2.332A9 9 0 0 0 9 18" clip-rule="evenodd"/><path fill="var(--fill-0, #fbbc05)" fill-rule="evenodd" d="M3.964 10.71A5.4 5.4 0 0 1 3.682 9c0-.593.102-1.17.282-1.71V4.958H.957A9 9 0 0 0 0 9c0 1.452.348 2.827.957 4.042z" clip-rule="evenodd"/><path fill="var(--fill-0, #ea4335)" fill-rule="evenodd" d="M9 3.58c1.321 0 2.508.454 3.44 1.345l2.582-2.58C13.463.891 11.426 0 9 0A9 9 0 0 0 .957 4.958L3.964 7.29C4.672 5.163 6.656 3.58 9 3.58" clip-rule="evenodd"/></svg>