<svg xmlns="http://www.w3.org/2000/svg" width="152" height="51" fill="none" viewBox="0 0 152 51"><g fill="#fe7bb6" clip-path="url(#a)"><path d="M18.51 33.923c-5.173-.353-7.583-.954-7.583-1.89 0-.316.084-.58.246-.781q.124-.153.303-.255c.098-.044.415-.18.72-.253q.035-.008.065-.017l.747.063c.518.079 1.051.123 1.582.13h.092q.064.007.13.007c3.67 0 7.08-1.655 9.119-4.43 1.198-1.628 1.83-3.528 1.83-5.491q0-.054-.002-.1v-.07c-.002-.032 0-.052 0-.078V20.7c.002-2.109-.659-4.155-1.907-5.917l-.029-.038.029-.039c.5-.645 1.025-2.639 1.257-3.717.683-3.18.183-3.597-.03-3.774l-.16-.133h-.211c-1.729.01-5.532 2.518-6.404 3.487l-.033.037-.047-.016a12.7 12.7 0 0 0-7.441-.302l-.039.01-.028-.027C9.504 9.182 6.179 7.095 4.6 7.095h-.21l-.159.133c-.882.738.065 4.57.767 6.46l.014.038-.028.03a8 8 0 0 0-1.339 1.85 10.23 10.23 0 0 0-1.382 5.1c0 .717.077 1.437.23 2.14l.003.029c.214 1.71.828 3.46 1.823 5.197l.032.057-.06.032c-2.122 1.137-3.153 2.572-3.153 4.387 0 1.941.817 3.36 2.43 4.216l.112.058-.114.056c-2.404 1.216-3.571 2.724-3.571 4.615 0 2.922 1.755 4.972 5.363 6.262 2.469.906 5.538 1.365 9.121 1.365s6.547-.516 8.943-1.538c3.079-1.385 4.639-3.587 4.639-6.546 0-4.27-3.216-6.663-9.557-7.115zm-4.284-17.714c2.809 0 5.092 2.166 5.092 4.827s-2.283 4.826-5.092 4.826-5.092-2.165-5.092-4.826 2.283-4.827 5.092-4.827m4.061 27.002.114.518-.116-.518c-.451.077-1.753.115-3.982.115-1.362 0-2.703-.115-3.982-.343-2.153-.385-3.246-1.002-3.246-1.832 0-.896.438-1.587 1.298-2.053l.024-.014.027.006c1.31.3 2.76.454 4.313.454 4.741 0 7.047.712 7.047 2.175 0 .792-.504 1.292-1.499 1.49zm31.017-18.177c0-.355-.12-.655-.356-.891a1.23 1.23 0 0 0-.899-.353h-2.804c-.924 0-1.674.345-2.231 1.026-.667.809-1.884 1.22-3.61 1.22-1.53 0-2.677-.343-3.407-1.02-.716-.661-1.147-1.722-1.283-3.157h14.027q.54-.002.897-.353c.236-.234.355-.535.355-.89V19.55c0-3.338-.98-5.94-2.914-7.728-1.932-1.786-4.67-2.693-8.137-2.693s-6.174.931-8.119 2.77c-1.946 1.839-2.932 4.502-2.932 7.917s.98 6.073 2.912 7.9c1.932 1.824 4.67 2.75 8.137 2.75 6.874 0 10.36-1.83 10.36-5.434zM38.946 13.558c2.693 0 4.08 1.367 4.234 4.178h-8.505c.181-2.81 1.579-4.178 4.271-4.178m26.699-4.429c-2.184 0-4.36.87-6.467 2.589v-.966c0-.355-.12-.655-.356-.89a1.23 1.23 0 0 0-.897-.352h-4.187q-.541.001-.897.353a1.2 1.2 0 0 0-.356.889v18.09q.001.537.356.89c.236.233.539.352.896.352h4.188q.541-.001.897-.353c.236-.233.356-.534.356-.889v-12.41c1.753-1.73 3.412-2.608 4.932-2.608 2.334 0 3.471 1.426 3.471 4.355v10.663q.001.537.356.89c.236.233.54.352.899.352h4.188q.541-.001.896-.353c.236-.233.356-.534.356-.889V18.18c0-3.034-.779-5.326-2.316-6.812-1.538-1.484-3.66-2.238-6.315-2.238m20.437 21.338c2.042 0 3.728-.13 5.011-.383.352-.055.649-.198.88-.428a1.12 1.12 0 0 0 .357-.814v-1.98c0-.355-.12-.655-.356-.891a1.23 1.23 0 0 0-.899-.353h-.692c-.26 0-.679.038-1.242.115-.557.074-1.005.113-1.33.113-.964 0-1.745-.335-2.325-.994-.581-.664-.878-1.627-.878-2.867V15.27h5.123q.54-.001.897-.353c.236-.233.356-.534.356-.889v-2.21c0-.354-.12-.654-.356-.89a1.23 1.23 0 0 0-.897-.353h-5.123V4.47c0-.355-.12-.655-.356-.891a1.23 1.23 0 0 0-.9-.353h-4.187q-.54.001-.899.353a1.2 1.2 0 0 0-.355.889v17.518c0 5.627 2.747 8.48 8.17 8.48zM99.875 3.226h-4.187c-.36 0-.662.119-.897.353a1.2 1.2 0 0 0-.356.889v24.373c0 .357.12.657.356.889q.355.352.898.353h4.188q.541-.002.899-.353c.236-.234.356-.535.356-.89V4.47c0-.355-.12-.655-.356-.891a1.23 1.23 0 0 0-.899-.353zm25.662 6.284h-3.958c-.382 0-.734.14-1.047.412a2 2 0 0 0-.627 1.006l-3.705 13.83c-.802-.024-1.505-.413-2.089-1.16-.616-.784-1.236-2.215-1.847-4.255l-2.458-8.415q-.163-.601-.69-1.01c-.35-.27-.72-.408-1.1-.408h-3.919q-.511.002-.83.405a.91.91 0 0 0-.152.904l2.804 9.596c1.025 3.47 2.268 5.92 3.696 7.283 1.405 1.34 3.174 2.032 5.261 2.06-.682 2.593-1.877 3.905-3.557 3.905-.297 0-.71-.054-1.229-.161-.528-.109-.941-.165-1.23-.165h-.691q-.543.001-.901.377-.354.373-.354.943v2.196c0 .322.12.612.354.86.231.246.528.4.88.458 1.361.27 3.008.41 4.899.41 2.197 0 3.972-.722 5.282-2.148 1.298-1.415 2.398-3.796 3.27-7.076l4.918-18.542c.083-.327.026-.63-.171-.897a.96.96 0 0 0-.811-.408zm17.219 10.266 6.067-8.472c.189-.268.293-.536.307-.794a.96.96 0 0 0-.236-.7c-.173-.2-.419-.302-.73-.302h-4.071c-1.235 0-2.246.566-3.004 1.683l-3.027 4.557-3.026-4.557c-.76-1.117-1.771-1.683-3.004-1.683h-4.071q-.469 0-.73.302a.96.96 0 0 0-.236.7q.02.39.307.796l6.065 8.47-6.482 8.506q-.457.537-.268 1.161.196.642.923.643h3.996c1.182 0 2.193-.564 3.002-1.68l3.529-4.727 3.528 4.726c.81 1.115 1.82 1.68 3.002 1.68h3.996c.476 0 .795-.223.923-.644.127-.413.035-.804-.266-1.155l-6.486-8.51z"/></g><defs><clipPath id="a"><path fill="#fff" d="M0 0h152v51H0z"/></clipPath></defs></svg>