<svg xmlns="http://www.w3.org/2000/svg" width="23" height="36" fill="none" viewBox="0 0 23 36"><path fill="#fe7bb6" d="M15.199 23.318c-4.246-.298-6.222-.788-6.222-1.576 0-.268.074-.49.207-.654a.9.9 0 0 1 .25-.209c.06-.023.25-.108.453-.169a10.6 10.6 0 0 0 2.397.094c4.824-.354 8.646-3.925 8.857-8.35v-.005a8.05 8.05 0 0 0-.82-3.941c.025-.864.016-1.882-.055-2.933v-.003c-.104-1.542-.345-3.157-.813-4.47a8 8 0 0 0-.36-.855.448.448 0 0 0-.65-.172c-1.047.672-2.79 2.028-3.859 3.672q-.001.007-.007.01l-.078-.022c-.94-.28-1.945-.43-2.989-.432h-.012c-1.076 0-2.11.16-3.078.455a9 9 0 0 0-.765-1.013q.001-.002-.005-.004C6.635 1.557 5.38.604 4.556.075a.45.45 0 0 0-.65.172q-.173.345-.315.729c-.162.436-.297.905-.41 1.396-.467 2.016-.552 4.388-.502 6.134a8.06 8.06 0 0 0-.82 3.958c.009.547.07 1.104.19 1.636v.03c.177 1.427.679 2.884 1.49 4.326l.029.045-.044.03c-1.74.95-2.58 2.14-2.58 3.657 0 1.62.663 2.795 1.99 3.509l.088.044-.088.045C.958 26.796 0 28.06 0 29.636c0 2.439 1.445 4.149 4.394 5.22 2.02.757 4.54 1.144 7.474 1.144s5.367-.431 7.328-1.279C21.717 33.561 23 31.733 23 29.265c.03-3.568-2.595-5.56-7.8-5.947zm-3.7-15.28c1.842 0 3.404 1.163 3.946 2.773.136.394.208.818.208 1.256 0 2.226-1.859 4.03-4.155 4.03-1.736 0-3.224-1.034-3.843-2.503-.2-.47-.31-.985-.31-1.527 0-2.225 1.86-4.029 4.153-4.029m3.538 23.011.073.446-.088-.431c-.369.06-1.445.09-3.258.09-1.12 0-2.212-.09-3.259-.283-1.769-.327-2.653-.833-2.653-1.532 0-.743.354-1.323 1.061-1.71l.015-.014h.015c1.076.252 2.255.371 3.538.371 3.892 0 5.78.595 5.78 1.814 0 .654-.413 1.085-1.224 1.249"/></svg>