<svg xmlns="http://www.w3.org/2000/svg" width="60" height="60" fill="none" viewBox="0 0 60 60"><path fill="#fe7bb6" fill-rule="evenodd" d="M30 7.5c13.75 0 25 8.95 25 20s-11.25 20-25 20c-3.1 0-6.076-.45-8.826-1.25C13.874 52.5 5 52.5 5 52.5c5.825-5.825 6.75-9.75 6.875-11.25C7.625 37.675 5 32.825 5 27.5c0-11.05 11.25-20 25-20M34.109 20a4.65 4.65 0 0 0-4.11 2.454A4.65 4.65 0 0 0 25.892 20c-2.564 0-4.641 2.048-4.641 4.568s1.59 4.829 3.645 6.726S30 35 30 35s2.952-1.779 5.105-3.706c2.296-2.055 3.645-4.199 3.645-6.726S36.672 20 34.109 20" clip-rule="evenodd"/></svg>