<svg xmlns="http://www.w3.org/2000/svg" width="60" height="60" fill="none" viewBox="0 0 60 60"><path fill="#fe7bb6" d="M35.979 9.566c.65-1.057 2.542-1.521 4.564-1.041 2.301.546 3.901 2.11 3.574 3.49l-.036.127c-.164.501-.577.898-1.148 1.169.14.7.228 1.67.228 2.74h4.646v9.084A11.61 11.61 0 0 1 54 35.407c0 6.413-5.2 11.612-11.613 11.612s-11.612-5.2-11.612-11.612a11.61 11.61 0 0 1 6.193-10.272v-9.084h4.644c0-.907.063-1.741.167-2.401a6.4 6.4 0 0 1-2.422-.125c-1.633-.388-2.913-1.289-3.4-2.272q-.398-.014-.816-.046a20 20 0 0 1-1.3-.145c-.34 1.135-1.827 2.173-3.741 2.496-1.825.308-3.496-.124-4.25-.997a20 20 0 0 1-3.484 1.438c.009 1.103-.744 2.489-2.05 3.566a6.5 6.5 0 0 1-2.038 1.157c.068.578.109 1.253.109 1.974h4.645v9.084a11.61 11.61 0 0 1 6.194 10.271c0 6.413-5.2 11.612-11.612 11.613C11.2 51.664 6 46.464 6 40.05c0-4.455 2.51-8.324 6.194-10.271v-9.084h4.645c0-.627.03-1.22.083-1.743-.593-.009-1.104-.186-1.455-.544l-.089-.099c-.903-1.094-.156-3.202 1.667-4.708 1.69-1.394 3.71-1.782 4.717-.962a19 19 0 0 1 1.914-.94c.64-.273 1.257-.5 1.815-.674.318-1.15 1.817-2.207 3.752-2.534 1.789-.302 3.429.108 4.204.946a20 20 0 0 1 2.532.128M17.613 32.309a7.742 7.742 0 1 0 0 15.484 7.742 7.742 0 0 0 0-15.484m24.775-4.644a7.743 7.743 0 1 0 0 15.485 7.743 7.743 0 0 0 0-15.485M20.09 13.785c-.572.087-1.328.406-2.06 1.011-.733.605-1.188 1.286-1.381 1.831-.096.27-.114.465-.105.58a.4.4 0 0 0 .019.101l.009.017.013.01a.4.4 0 0 0 .097.038c.104.028.279.046.53.014.117-.356.253-.561.4-.561.119 0 .229.134.329.37a5 5 0 0 0 1.39-.825c.732-.605 1.188-1.286 1.381-1.831q.038-.112.06-.205c-.387.027-.638-.023-.7-.167-.042-.1.012-.235.145-.396q-.06.005-.127.014m20.095-3.753c-.776-.185-1.477-.18-2.008-.07.817.22 1.318.481 1.299.727-.021.258-.614.443-1.535.528.423.322 1.027.624 1.772.801.925.22 1.744.173 2.295-.002.272-.086.437-.19.523-.267a.4.4 0 0 0 .07-.076l.008-.016q.002-.002 0-.019a.4.4 0 0 0-.028-.098c-.043-.108-.144-.275-.348-.475-.414-.404-1.124-.814-2.048-1.033m-9.24-.059a5.2 5.2 0 0 0-1.445.045c-.724.122-1.328.367-1.767.646.112.028.188.073.217.143.083.195-.195.523-.722.91q.124.08.324.16c.539.211 1.352.313 2.289.155s1.673-.52 2.112-.897c.171-.146.275-.278.336-.378-.848-.224-1.371-.49-1.351-.74a.2.2 0 0 1 .008-.044"/></svg>