<svg xmlns="http://www.w3.org/2000/svg" width="60" height="60" fill="none" viewBox="0 0 60 60"><path fill="#fe7bb6" d="M24.608 15.025c1.623-.361 3.355 3.355 5.368 3.355s3.745-3.716 5.368-3.355c5.315.887 15.826 13.464 18.271 16.468a.93.93 0 0 1-.042 1.245c-2.374 2.489-12.037 11.809-23.597 11.809S8.753 35.227 6.38 32.738a.933.933 0 0 1-.041-1.245c2.445-3.005 12.956-15.581 18.27-16.468m9.73 12.413c-2.349 0-2.685 1.341-4.698 1.341-2.012 0-2.348-1.341-4.696-1.341-1.079 0-2.578.737-3.913 1.577-.817.513-.386 1.829.557 2.035 3.142.688 5.736 2.425 8.052 2.426 2.317 0 4.91-1.738 8.054-2.426.942-.206 1.373-1.522.556-2.035-1.335-.84-2.834-1.577-3.913-1.578"/></svg>