<svg xmlns="http://www.w3.org/2000/svg" width="60" height="60" fill="none" viewBox="0 0 60 60"><path fill="#fe7bb6" d="M34.563 39.964c-.718-.804-2.766-3.523-6.968-9.987a21.2 21.2 0 0 0-3.57-4.18c-.431-.389-.475-1.06-.075-1.481l3.814-4.021a1 1 0 0 1 .726-.312h9.726a1 1 0 0 0 1-1v-2.648a1 1 0 0 0-1-1H26.839a1 1 0 0 1-.697-.283l-7.4-7.194a1 1 0 0 0-1.372-.02l-1.312 1.203a1 1 0 0 0-.022 1.454l7.119 6.927a1 1 0 0 1 .014 1.418l-3.184 3.227a1.03 1.03 0 0 1-1.19.19c-2.332-1.159-4.565-1.803-6.265-2.096-.69-.119-1.22.537-1.035 1.212 2.804 10.27 3.122 23.762 2.895 30.337a1.007 1.007 0 0 0 1.007 1.043h2.366a1 1 0 0 0 1-1V30.868c0-.673.655-1.151 1.257-.848 6.492 3.27 8.631 14.932 8.938 21.39.024.505.415.918.917.965 13.676 1.287 18.065-.643 18.606-1.865a.6.6 0 0 0 .042-.168l1.21-9.47c.085-.674-.513-1.24-1.187-1.153-.685.088-1.435.163-2.225.225a.99.99 0 0 1-1.063-.99v-2.392a1 1 0 0 0-.75-.968l-5.205-1.344a1 1 0 0 0-1.25.969v4.015a.995.995 0 0 1-.997.997 141 141 0 0 1-1.918-.02.78.78 0 0 1-.575-.247"/></svg>