<svg xmlns="http://www.w3.org/2000/svg" width="149" height="11" fill="none" viewBox="0 0 149 11"><rect width="2" height="6" y="2.5" fill="#fe7bb6" rx="1"/><rect width="2" height="11" x="3" fill="#fe7bb6" rx="1"/><rect width="2" height="11" x="6" fill="#fe7bb6" rx="1"/><rect width="2" height="7" x="9" y="2" fill="#fe7bb6" rx="1"/><rect width="2" height="5" x="12" y="3" fill="#fe7bb6" rx="1"/><rect width="2" height="8" x="15" y="1.5" fill="#fe7bb6" rx="1"/><rect width="2" height="4" x="18" y="3.5" fill="#fe7bb6" rx="1"/><rect width="2" height="6" x="21" y="2.5" fill="#fe7bb6" rx="1"/><rect width="2" height="5" x="24" y="3" fill="#fe7bb6" rx="1"/><rect width="2" height="7" x="27" y="2" fill="#fe7bb6" rx="1"/><rect width="2" height="3" x="30" y="4" fill="#fe7bb6" rx="1"/><rect width="2" height="6" x="33" y="2.5" fill="#fe7bb6" rx="1"/><rect width="2" height="10" x="36" y=".5" fill="#fe7bb6" rx="1"/><rect width="2" height="3" x="39" y="4" fill="#fe7bb6" rx="1"/><rect width="2" height="4" x="42" y="3.5" fill="#fe7bb6" rx="1"/><rect width="2" height="9" x="45" y="1" fill="#fe7bb6" rx="1"/><rect width="2" height="4" x="48" y="3.5" fill="#fe7bb6" rx="1"/><rect width="2" height="10" x="51" y=".5" fill="#fe7bb6" rx="1"/><rect width="2" height="10" x="54" y=".5" fill="#fe7bb6" rx="1"/><rect width="2" height="5" x="57" y="3" fill="#fe7bb6" rx="1"/><rect width="2" height="8" x="60" y="1.5" fill="#fe7bb6" rx="1"/><rect width="2" height="4" x="63" y="3.5" fill="#fe7bb6" rx="1"/><rect width="2" height="10" x="66" y=".5" fill="#fe7bb6" rx="1"/><rect width="2" height="6" x="69" y="2.5" fill="#fe7bb6" rx="1"/><rect width="2" height="4" x="72" y="3.5" fill="#fe7bb6" rx="1"/><rect width="2" height="5" x="75" y="3" fill="#fe7bb6" rx="1"/><rect width="2" height="6" x="78" y="2.5" fill="#fe7bb6" rx="1"/><rect width="2" height="11" x="81" fill="#fe7bb6" rx="1"/><rect width="2" height="6" x="84" y="2.5" fill="#fe7bb6" rx="1"/><rect width="2" height="11" x="87" fill="#fe7bb6" rx="1"/><rect width="2" height="11" x="90" fill="#fe7bb6" rx="1"/><rect width="2" height="7" x="93" y="2" fill="#fe7bb6" rx="1"/><rect width="2" height="5" x="96" y="3" fill="#fe7bb6" rx="1"/><rect width="2" height="4" x="99" y="3.5" fill="#fe7bb6" rx="1"/><rect width="2" height="6" x="102" y="2.5" fill="#fe7bb6" rx="1"/><rect width="2" height="5" x="105" y="3" fill="#fe7bb6" rx="1"/><rect width="2" height="4" x="108" y="3.5" fill="#fe7bb6" rx="1"/><rect width="2" height="10" x="111" y=".5" fill="#fe7bb6" rx="1"/><rect width="2" height="10" x="114" y=".5" fill="#fe7bb6" rx="1"/><rect width="2" height="6" x="117" y="2.5" fill="#fe7bb6" rx="1"/><rect width="2" height="4" x="120" y="3.5" fill="#fe7bb6" rx="1"/><rect width="2" height="5" x="123" y="3" fill="#fe7bb6" rx="1"/><rect width="2" height="11" x="126" fill="#fe7bb6" rx="1"/><rect width="2" height="11" x="129" fill="#fe7bb6" rx="1"/><rect width="2" height="5" x="132" y="3" fill="#fe7bb6" rx="1"/><rect width="2" height="11" x="135" fill="#fe7bb6" rx="1"/><rect width="2" height="8" x="138" y="1.5" fill="#fe7bb6" rx="1"/><rect width="2" height="11" x="141" fill="#fe7bb6" rx="1"/><rect width="2" height="9" x="144" y="1" fill="#fe7bb6" rx="1"/><rect width="2" height="5" x="147" y="3" fill="#fe7bb6" rx="1"/></svg>