<svg xmlns="http://www.w3.org/2000/svg" fill="none" overflow="visible" preserveAspectRatio="none" style="display:block" viewBox="0 0 237 76"><mask id="a" fill="#fff"><path d="M221 0c8.836 0 16 7.164 16 16v40c0 8.837-7.164 16-16 16H25c-2.23 0-4.354-.457-6.283-1.28a.58.58 0 0 0-.573.073c-.64.48-1.618 1.117-2.997 1.771-2.27 1.077-5.617 2.194-10.314 2.737-1.016.117-2.095.21-3.24.266a1.5 1.5 0 0 1-.51-.06 1.4 1.4 0 0 1-.223-.086 1.55 1.55 0 0 1-.749-.83 1.64 1.64 0 0 1-.101-.774 1.56 1.56 0 0 1 .476-.96q.353-.338.72-.706a49 49 0 0 0 3.036-3.35 45 45 0 0 0 1.88-2.442 37 37 0 0 0 2.049-3.178c1.022-1.788 1.027-3.92.874-5.975Q9 56.61 9 56V16C9 7.163 16.163 0 25 0z"/></mask><path fill="var(--fill-0, #1f1f1f)" d="M221 0c8.836 0 16 7.164 16 16v40c0 8.837-7.164 16-16 16H25c-2.23 0-4.354-.457-6.283-1.28a.58.58 0 0 0-.573.073c-.64.48-1.618 1.117-2.997 1.771-2.27 1.077-5.617 2.194-10.314 2.737-1.016.117-2.095.21-3.24.266a1.5 1.5 0 0 1-.51-.06 1.4 1.4 0 0 1-.223-.086 1.55 1.55 0 0 1-.749-.83 1.64 1.64 0 0 1-.101-.774 1.56 1.56 0 0 1 .476-.96q.353-.338.72-.706a49 49 0 0 0 3.036-3.35 45 45 0 0 0 1.88-2.442 37 37 0 0 0 2.049-3.178c1.022-1.788 1.027-3.92.874-5.975Q9 56.61 9 56V16C9 7.163 16.163 0 25 0z"/><path fill="var(--stroke-0, #fe7bb6)" d="M221 0v-1.041zm16 16h1.041zm-16 56v1.041zM18.144 70.793l.625.833zm-2.997 1.771.446.941zM4.833 75.301l-.12-1.035zm-3.24.266.052 1.04zm-.39-.029-.211 1.02zm-.12-.03.298-.998zM.86 75.42l-.46.934h.001zm-.749-.83-.97.379zm-.089-.32-1.026.173zm-.012-.454 1.035.116zm.172-.56.92.489zm.132-.207-.83-.628zm.082-.099.778.692zm.09-.095-.72-.751zm.72-.705-.739-.735zm1.5-1.577.77.7zm1.535-1.772-.803-.663zm1.881-2.443.847.607zm2.049-3.178-.904-.517zM9 56H7.959zm9.717 14.72-.409.957zM221 0v1.041c8.261 0 14.959 6.698 14.959 14.959h2.082c0-9.412-7.629-17.041-17.041-17.041zm16 16h-1.041v40h2.082V16zm0 40h-1.041c0 8.261-6.698 14.959-14.959 14.959v2.082c9.412 0 17.041-7.63 17.041-17.041zm-16 16v-1.041H25v2.082h196zM25 72v-1.041c-2.087 0-4.072-.427-5.873-1.198l-.41.958-.409.958A17 17 0 0 0 25 73.04zm-6.856-1.207-.626-.833c-.584.44-1.503 1.04-2.818 1.664l.447.94.446.941c1.444-.685 2.482-1.359 3.176-1.88zm-2.997 1.771-.447-.94c-2.16 1.025-5.398 2.112-9.987 2.642l.12 1.035.12 1.034c4.804-.555 8.262-1.702 10.64-2.83zM4.833 75.301l-.12-1.035c-.994.115-2.05.205-3.172.261l.052 1.04.052 1.04a51 51 0 0 0 3.308-.272zm-3.24.266-.052-1.04a.5.5 0 0 1-.126-.008l-.212 1.02-.211 1.019q.315.065.653.05zm-.39-.029.212-1.02-.034-.008-.298.998-.298.998q.102.03.207.052zm-.12-.03.298-.998a.4.4 0 0 1-.061-.024l-.46.935-.459.934q.187.092.384.15zM.86 75.42l.46-.935a.5.5 0 0 1-.239-.273l-.97.379-.97.378a2.6 2.6 0 0 0 1.26 1.385zm-.749-.83.97-.377a.6.6 0 0 1-.032-.117l-1.027.174-1.026.173q.046.274.145.526zm-.089-.32 1.027-.174a.6.6 0 0 1-.004-.164L.01 73.817l-1.035-.115q-.041.377.02.742zm-.012-.454 1.035.116a.5.5 0 0 1 .056-.187l-.92-.488-.92-.488a2.6 2.6 0 0 0-.286.932zm.172-.56.92.489.043-.069-.83-.627-.831-.628q-.126.166-.222.348zm.132-.207.831.627.029-.034-.778-.692-.779-.692a3 3 0 0 0-.133.163zm.082-.099.778.692.033-.035-.72-.752-.721-.751a3 3 0 0 0-.149.154zm.09-.095.72.752q.362-.345.737-.722l-.738-.735-.738-.735q-.357.36-.701.689zm.72-.705.737.735c.499-.5 1.013-1.04 1.533-1.611l-.77-.7-.771-.701a47 47 0 0 1-1.468 1.542zm1.5-1.577.77.7a50 50 0 0 0 1.568-1.81l-.803-.662-.803-.663c-.5.606-1.005 1.186-1.503 1.735zm1.535-1.772.803.662a46 46 0 0 0 1.925-2.498l-.847-.607-.847-.606a44 44 0 0 1-1.837 2.386zm1.881-2.443.847.607a38 38 0 0 0 2.106-3.269l-.904-.516-.904-.517a36 36 0 0 1-1.992 3.09zm2.923-9.153 1.038-.077A15 15 0 0 1 10.041 56H7.96q0 .648.047 1.284zM9 56h1.041V16H7.96v40zm0-40h1.041C10.041 7.739 16.74 1.041 25 1.041V-1.04C15.588-1.041 7.959 6.589 7.959 16zM25 0v1.041h196V-1.04H25zM8.17 63.18l.905.517c1.192-2.085 1.162-4.504 1.008-6.568l-1.038.077-1.039.078c.153 2.043.113 3.89-.74 5.38zm10.547 7.54.41-.959a1.62 1.62 0 0 0-1.609.2l.626.832.625.833a.47.47 0 0 1-.46.05z" mask="url(#a)"/></svg>